{"title":"The Count of Monte Cristo-AC3-XviD-BRRip 2002","uid":6640517,"size":1874766528,"categoryP":"video","categoryS":"movies","magnet":"?xt=urn:btih:26ce281ac90e0354e5ba9bd8707f3a17d7746060&amp;dn=The+Count+of+Monte+Cristo-AC3-XviD-BRRip+2002&amp;tr=udp%3A%2F%2Ftracker.openbittorrent.com%3A80&amp;tr=udp%3A%2F%2Fopen.demonii.com%3A1337&amp;tr=udp%3A%2F%2Ftracker.coppersurfer.tk%3A6969&amp;tr=udp%3A%2F%2Fexodus.desync.com%3A6969","seeders":0,"leechers":1,"uploader":"FatFreddy31","files":-1,"time":1314725972,"description":"[img]http://img855.imageshack.us/img855/605/thecountofmontecristo32.jpg[/img]\n &lt;a href=&quot;\nhttp://www.imdb.com/title/tt0245844/&quot; rel=&quot;nofollow&quot; target=&quot;_NEW&quot;&gt;\nhttp://www.imdb.com/title/tt0245844/&lt;/a&gt;\n &lt;a href=&quot;\nhttp://www.moviemeter.nl/film/886&quot; rel=&quot;nofollow&quot; target=&quot;_NEW&quot;&gt;\nhttp://www.moviemeter.nl/film/886&lt;/a&gt;\n\nSubs: Dutch, English.\n\nSource: The.Count.of.Monte.Cristo.2002.720p.BluRay.X264-AMIABLE\n\n\nGeneral\nComplete name                    : The Count of Monte Cristo-AC3-XviD-BRRip 2002\\The Count of Monte Cristo-AC3-XviD-BRRip 2002.avi\nFormat                           : AVI\nFormat/Info                      : Audio Video Interleave\nFile size                        : 1.75 GiB\nDuration                         : 2h 11mn\nOverall bit rate                 : 1 904 Kbps\nWriting application              : VirtualDubMod 1.5.4.1 (build 2178/release)\nWriting library                  : VirtualDubMod build 2178/release\n\nVideo\nID                               : 0\nFormat                           : MPEG-4 Visual\nFormat profile                   : Simple@L3\nFormat settings, BVOP            : No\nFormat settings, QPel            : No\nFormat settings, GMC             : No warppoints\nFormat settings, Matrix          : Default (H.263)\nCodec ID                         : XVID\nCodec ID/Hint                    : XviD\nDuration                         : 2h 11mn\nBit rate                         : 1 446 Kbps\nWidth                            : 720 pixels\nHeight                           : 400 pixels\nDisplay aspect ratio             : 16:9\nFrame rate                       : 23.976 fps\nResolution                       : 8 bits\nColorimetry                      : 4:2:0\nScan type                        : Progressive\nBits/(Pixel*Frame)               : 0.209\nStream size                      : 1.33 GiB (76%)\nWriting library                  : XviD 1.1.2 (UTC 2006-11-01)\n\nAudio\nID                               : 1\nFormat                           : AC-3\nFormat/Info                      : Audio Coding 3\nCodec ID                         : 2000\nDuration                         : 2h 11mn\nBit rate mode                    : Constant\nBit rate                         : 448 Kbps\nChannel(s)                       : 6 channels\nChannel positions                : Front: L C R, Surround: L R, LFE\nSampling rate                    : 48.0 KHz\nStream size                      : 421 MiB (24%)\nAlignment                        : Split accross interleaves\nInterleave, duration             : 42 ms (1.00 video frame)\nInterleave, preload duration     : 500 ms\n\nEnjoy..\n\n[img]http://img8.imageshack.us/img8/6923/thecountofmontecristoac.jpg[/img]","torrent":{"xt":"urn:btih:26ce281ac90e0354e5ba9bd8707f3a17d7746060","amp;dn":"The+Count+of+Monte+Cristo-AC3-XviD-BRRip+2002","amp;tr":["udp%3A%2F%2Ftracker.openbittorrent.com%3A80","udp%3A%2F%2Fopen.demonii.com%3A1337","udp%3A%2F%2Ftracker.coppersurfer.tk%3A6969","udp%3A%2F%2Fexodus.desync.com%3A6969"],"infoHash":"26ce281ac90e0354e5ba9bd8707f3a17d7746060","infoHashBuffer":{"type":"Buffer","data":[38,206,40,26,201,14,3,84,229,186,155,216,112,127,58,23,215,116,96,96]},"announce":[],"urlList":[]}}